<?xml version="1.0" standalone="no"?>
<svg xmlns:xlink="http://www.w3.org/1999/xlink" id="wave" style="transform:rotate(0deg); transition: 0.3s" viewBox="0 0 1440 490" version="1.1" xmlns="http://www.w3.org/2000/svg"><defs><linearGradient id="sw-gradient-0" x1="0" x2="0" y1="1" y2="0"><stop stop-color="rgba(62, 203.147, 243, 1)" offset="0%"/><stop stop-color="rgba(11, 126.887, 255, 1)" offset="100%"/></linearGradient></defs><path style="transform:translate(0, 0px); opacity:1" fill="url(#sw-gradient-0)" d="M0,147L34.3,187.8C68.6,229,137,310,206,318.5C274.3,327,343,261,411,253.2C480,245,549,294,617,285.8C685.7,278,754,212,823,171.5C891.4,131,960,114,1029,114.3C1097.1,114,1166,131,1234,138.8C1302.9,147,1371,147,1440,130.7C1508.6,114,1577,82,1646,73.5C1714.3,65,1783,82,1851,130.7C1920,180,1989,261,2057,294C2125.7,327,2194,310,2263,269.5C2331.4,229,2400,163,2469,147C2537.1,131,2606,163,2674,187.8C2742.9,212,2811,229,2880,220.5C2948.6,212,3017,180,3086,171.5C3154.3,163,3223,180,3291,179.7C3360,180,3429,163,3497,147C3565.7,131,3634,114,3703,147C3771.4,180,3840,261,3909,269.5C3977.1,278,4046,212,4114,212.3C4182.9,212,4251,278,4320,277.7C4388.6,278,4457,212,4526,196C4594.3,180,4663,212,4731,253.2C4800,294,4869,343,4903,367.5L4937.1,392L4937.1,490L4902.9,490C4868.6,490,4800,490,4731,490C4662.9,490,4594,490,4526,490C4457.1,490,4389,490,4320,490C4251.4,490,4183,490,4114,490C4045.7,490,3977,490,3909,490C3840,490,3771,490,3703,490C3634.3,490,3566,490,3497,490C3428.6,490,3360,490,3291,490C3222.9,490,3154,490,3086,490C3017.1,490,2949,490,2880,490C2811.4,490,2743,490,2674,490C2605.7,490,2537,490,2469,490C2400,490,2331,490,2263,490C2194.3,490,2126,490,2057,490C1988.6,490,1920,490,1851,490C1782.9,490,1714,490,1646,490C1577.1,490,1509,490,1440,490C1371.4,490,1303,490,1234,490C1165.7,490,1097,490,1029,490C960,490,891,490,823,490C754.3,490,686,490,617,490C548.6,490,480,490,411,490C342.9,490,274,490,206,490C137.1,490,69,490,34,490L0,490Z"/><defs><linearGradient id="sw-gradient-1" x1="0" x2="0" y1="1" y2="0"><stop stop-color="rgba(37.307, 47.895, 89.222, 1)" offset="0%"/><stop stop-color="rgba(11, 255, 242.602, 1)" offset="100%"/></linearGradient></defs><path style="transform:translate(0, 50px); opacity:0.9" fill="url(#sw-gradient-1)" d="M0,343L34.3,351.2C68.6,359,137,376,206,334.8C274.3,294,343,196,411,147C480,98,549,98,617,106.2C685.7,114,754,131,823,138.8C891.4,147,960,147,1029,130.7C1097.1,114,1166,82,1234,106.2C1302.9,131,1371,212,1440,204.2C1508.6,196,1577,98,1646,122.5C1714.3,147,1783,294,1851,302.2C1920,310,1989,180,2057,138.8C2125.7,98,2194,147,2263,138.8C2331.4,131,2400,65,2469,73.5C2537.1,82,2606,163,2674,196C2742.9,229,2811,212,2880,212.3C2948.6,212,3017,229,3086,236.8C3154.3,245,3223,245,3291,245C3360,245,3429,245,3497,269.5C3565.7,294,3634,343,3703,310.3C3771.4,278,3840,163,3909,171.5C3977.1,180,4046,310,4114,343C4182.9,376,4251,310,4320,261.3C4388.6,212,4457,180,4526,163.3C4594.3,147,4663,147,4731,163.3C4800,180,4869,212,4903,228.7L4937.1,245L4937.1,490L4902.9,490C4868.6,490,4800,490,4731,490C4662.9,490,4594,490,4526,490C4457.1,490,4389,490,4320,490C4251.4,490,4183,490,4114,490C4045.7,490,3977,490,3909,490C3840,490,3771,490,3703,490C3634.3,490,3566,490,3497,490C3428.6,490,3360,490,3291,490C3222.9,490,3154,490,3086,490C3017.1,490,2949,490,2880,490C2811.4,490,2743,490,2674,490C2605.7,490,2537,490,2469,490C2400,490,2331,490,2263,490C2194.3,490,2126,490,2057,490C1988.6,490,1920,490,1851,490C1782.9,490,1714,490,1646,490C1577.1,490,1509,490,1440,490C1371.4,490,1303,490,1234,490C1165.7,490,1097,490,1029,490C960,490,891,490,823,490C754.3,490,686,490,617,490C548.6,490,480,490,411,490C342.9,490,274,490,206,490C137.1,490,69,490,34,490L0,490Z"/><defs><linearGradient id="sw-gradient-2" x1="0" x2="0" y1="1" y2="0"><stop stop-color="rgba(98.66, 62, 243, 1)" offset="0%"/><stop stop-color="rgba(71.796, 136.269, 198.507, 1)" offset="100%"/></linearGradient></defs><path style="transform:translate(0, 100px); opacity:0.8" fill="url(#sw-gradient-2)" d="M0,196L34.3,179.7C68.6,163,137,131,206,171.5C274.3,212,343,327,411,351.2C480,376,549,310,617,261.3C685.7,212,754,180,823,179.7C891.4,180,960,212,1029,245C1097.1,278,1166,310,1234,334.8C1302.9,359,1371,376,1440,326.7C1508.6,278,1577,163,1646,106.2C1714.3,49,1783,49,1851,40.8C1920,33,1989,16,2057,73.5C2125.7,131,2194,261,2263,285.8C2331.4,310,2400,229,2469,236.8C2537.1,245,2606,343,2674,367.5C2742.9,392,2811,343,2880,310.3C2948.6,278,3017,261,3086,253.2C3154.3,245,3223,245,3291,261.3C3360,278,3429,310,3497,334.8C3565.7,359,3634,376,3703,334.8C3771.4,294,3840,196,3909,163.3C3977.1,131,4046,163,4114,187.8C4182.9,212,4251,229,4320,236.8C4388.6,245,4457,245,4526,204.2C4594.3,163,4663,82,4731,98C4800,114,4869,229,4903,285.8L4937.1,343L4937.1,490L4902.9,490C4868.6,490,4800,490,4731,490C4662.9,490,4594,490,4526,490C4457.1,490,4389,490,4320,490C4251.4,490,4183,490,4114,490C4045.7,490,3977,490,3909,490C3840,490,3771,490,3703,490C3634.3,490,3566,490,3497,490C3428.6,490,3360,490,3291,490C3222.9,490,3154,490,3086,490C3017.1,490,2949,490,2880,490C2811.4,490,2743,490,2674,490C2605.7,490,2537,490,2469,490C2400,490,2331,490,2263,490C2194.3,490,2126,490,2057,490C1988.6,490,1920,490,1851,490C1782.9,490,1714,490,1646,490C1577.1,490,1509,490,1440,490C1371.4,490,1303,490,1234,490C1165.7,490,1097,490,1029,490C960,490,891,490,823,490C754.3,490,686,490,617,490C548.6,490,480,490,411,490C342.9,490,274,490,206,490C137.1,490,69,490,34,490L0,490Z"/><defs><linearGradient id="sw-gradient-3" x1="0" x2="0" y1="1" y2="0"><stop stop-color="rgba(62, 166.359, 243, 1)" offset="0%"/><stop stop-color="rgba(88.764, 113.781, 193.954, 1)" offset="100%"/></linearGradient></defs><path style="transform:translate(0, 150px); opacity:0.7" fill="url(#sw-gradient-3)" d="M0,441L34.3,416.5C68.6,392,137,343,206,294C274.3,245,343,196,411,187.8C480,180,549,212,617,228.7C685.7,245,754,245,823,269.5C891.4,294,960,343,1029,310.3C1097.1,278,1166,163,1234,98C1302.9,33,1371,16,1440,81.7C1508.6,147,1577,294,1646,351.2C1714.3,408,1783,376,1851,343C1920,310,1989,278,2057,253.2C2125.7,229,2194,212,2263,187.8C2331.4,163,2400,131,2469,106.2C2537.1,82,2606,65,2674,89.8C2742.9,114,2811,180,2880,171.5C2948.6,163,3017,82,3086,40.8C3154.3,0,3223,0,3291,40.8C3360,82,3429,163,3497,212.3C3565.7,261,3634,278,3703,261.3C3771.4,245,3840,196,3909,220.5C3977.1,245,4046,343,4114,367.5C4182.9,392,4251,343,4320,318.5C4388.6,294,4457,294,4526,294C4594.3,294,4663,294,4731,245C4800,196,4869,98,4903,49L4937.1,0L4937.1,490L4902.9,490C4868.6,490,4800,490,4731,490C4662.9,490,4594,490,4526,490C4457.1,490,4389,490,4320,490C4251.4,490,4183,490,4114,490C4045.7,490,3977,490,3909,490C3840,490,3771,490,3703,490C3634.3,490,3566,490,3497,490C3428.6,490,3360,490,3291,490C3222.9,490,3154,490,3086,490C3017.1,490,2949,490,2880,490C2811.4,490,2743,490,2674,490C2605.7,490,2537,490,2469,490C2400,490,2331,490,2263,490C2194.3,490,2126,490,2057,490C1988.6,490,1920,490,1851,490C1782.9,490,1714,490,1646,490C1577.1,490,1509,490,1440,490C1371.4,490,1303,490,1234,490C1165.7,490,1097,490,1029,490C960,490,891,490,823,490C754.3,490,686,490,617,490C548.6,490,480,490,411,490C342.9,490,274,490,206,490C137.1,490,69,490,34,490L0,490Z"/></svg>